# xmcd CD database file generated by OrangeCD 5.2
#
# Track frame offsets:
#	150
#	13004
#	25864
#	38807
#	50502
#	62087
#	74639
#	86719
#	98289
#	110400
#	122047
#	131287
#	140904
#	150475
#	163741
#	178467
#	190222
#	203687
#	215087
#	226195
#	237729
#	247343
#	259864
#	271860
#	284424
#
# Disc length: 3939 seconds
#
# Revision: 8
# Processed by: cddbd v1.5.1PL0 Copyright (c) Steve Scherf et al.
# Submitted via: OrangeCD 5.2
#
DISCID=7a0f6119
DTITLE=Various Artist - The Country Roots of Rock and Roll
DYEAR=2004
DGENRE=Country
TTITLE0=Johnny Bond and his Red River Valley Boys - Mean Mama Boogie
TTITLE1=Tex Williams - Smoke! Smoke! Smoke! That Cigarette
TTITLE2=Merle Travis - So Round, So Firm, So Fully Packed (That's My Girl)
TTITLE3=Al Dexter - Saturday Night Boogie
TTITLE4=Leon McAuliffe - Steel Guitar Rag
TTITLE5=Hank Penny - Steel Guitar Stomp
TTITLE6=Hank Snow - The Golden Rocket
TTITLE7=Tennesse Ernie Ford - Shotgun Boogie
TTITLE8=Spade Cooley - Oklahoma Stomp
TTITLE9=Zeb Turner - Travellin' Boogie
TTITLE10=The Maddox Brothers - Water Baby Boogie
TTITLE11=Hank Williams - I Saw The Light
TTITLE12=The Milo Twins - Baby Buggie Boogie
TTITLE13=Bill Monroe and his Bluegrass Boys - Blue Moon Of Kentucky
TTITLE14=Arthur Smith - Guitar Boogie
TTITLE15=Milton Brown - Easy Ridin' Papa
TTITLE16=Merle Travis - Merle's Boogie Woogie
TTITLE17=Hank Penny - Bloodshot Eyes
TTITLE18=Tennessee Ernie Ford - Blackberry Boogie
TTITLE19=The Maddox Brothers and Rose - Mean and Wicked Boogie
TTITLE20=Spade Cooley (with female vocal) - The Rhumba Boogie
TTITLE21=Hank Snow - I'm Movin' On
TTITLE22=Hank Williams - Move It On Over
TTITLE23=The sons of the pioneers - Cigarettes, Whiskey and Wild Women
TTITLE24=Bill Monroe and his Bluegrass Boys - Orange Blossom Special
EXTD=
EXTT0=
EXTT1=
EXTT2=
EXTT3=
EXTT4=
EXTT5=
EXTT6=
EXTT7=
EXTT8=
EXTT9=
EXTT10=
EXTT11=
EXTT12=
EXTT13=
EXTT14=
EXTT15=
EXTT16=
EXTT17=
EXTT18=
EXTT19=
EXTT20=
EXTT21=
EXTT22=
EXTT23=
EXTT24=
PLAYORDER=
